<?xml version="1.0" encoding="UTF-8"?>
<svg version="1.1" xmlns="http://www.w3.org/2000/svg" width="819" height="819">
<path d="M0 0 C1.25968597 0.00182281 2.51937195 0.00364563 3.81723022 0.00552368 C22.06639007 0.05000591 39.94903803 0.42693605 58 3.3125 C59.12857422 3.48410645 60.25714844 3.65571289 61.41992188 3.83251953 C117.16883895 12.45372437 171.33381761 32.00384107 219 62.3125 C219.9895166 62.93970947 219.9895166 62.93970947 220.99902344 63.57958984 C238.79676766 74.94909997 255.83056078 87.72677798 271.41796875 101.9765625 C272.82446183 103.24900254 274.23708262 104.5152703 275.6784668 105.74804688 C281.34459804 110.60410918 286.66194529 115.78828208 291.93579102 121.06298828 C293.42641615 122.55143237 294.92487017 124.03167277 296.42382812 125.51171875 C302.00951668 131.06569104 307.18077119 136.74886893 312.07763672 142.92871094 C313.86758052 145.14829581 315.73400802 147.2369669 317.6875 149.3125 C365.86734806 202.97388766 395.19423938 277.34653922 406.25 347.6875 C406.40114258 348.6472876 406.55228516 349.6070752 406.70800781 350.59594727 C407.18599221 353.83043425 407.60423862 357.06686333 408 360.3125 C408.08720306 361.02168579 408.17440613 361.73087158 408.26425171 362.46154785 C410.12481357 378.0736528 410.35964539 393.60352796 410.3125 409.3125 C410.30976578 411.20202896 410.30976578 411.20202896 410.30697632 413.12973022 C410.26249409 431.37889007 409.88556395 449.26153803 407 467.3125 C406.74259033 469.00536133 406.74259033 469.00536133 406.47998047 470.73242188 C397.85877563 526.48133895 378.30865893 580.64631761 348 628.3125 C347.58186035 628.97217773 347.1637207 629.63185547 346.73291016 630.31152344 C335.36340003 648.10926766 322.58572202 665.14306078 308.3359375 680.73046875 C307.06349746 682.13696183 305.7972297 683.54958262 304.56445312 684.9909668 C299.70839082 690.65709804 294.52421792 695.97444529 289.24951172 701.24829102 C287.76106763 702.73891615 286.28082723 704.23737017 284.80078125 705.73632812 C279.24680896 711.32201668 273.56363107 716.49327119 267.38378906 721.39013672 C265.16420419 723.18008052 263.0755331 725.04650802 261 727 C207.33861234 775.17984806 132.96596078 804.50673938 62.625 815.5625 C61.6652124 815.71364258 60.7054248 815.86478516 59.71655273 816.02050781 C56.48206575 816.49849221 53.24563667 816.91673862 50 817.3125 C49.29081421 817.39970306 48.58162842 817.48690613 47.85095215 817.57675171 C32.2388472 819.43731357 16.70897204 819.67214539 1 819.625 C-0.25968597 819.62317719 -1.51937195 819.62135437 -2.81723022 819.61947632 C-21.06639007 819.57499409 -38.94903803 819.19806395 -57 816.3125 C-58.69286133 816.05509033 -58.69286133 816.05509033 -60.41992188 815.79248047 C-116.16883895 807.17127563 -170.33381761 787.62115893 -218 757.3125 C-218.65967773 756.89436035 -219.31935547 756.4762207 -219.99902344 756.04541016 C-237.79676766 744.67590003 -254.83056078 731.89822202 -270.41796875 717.6484375 C-271.82446183 716.37599746 -273.23708262 715.1097297 -274.6784668 713.87695312 C-280.34459804 709.02089082 -285.66194529 703.83671792 -290.93579102 698.56201172 C-292.42641615 697.07356763 -293.92487017 695.59332723 -295.42382812 694.11328125 C-301.00951668 688.55930896 -306.18077119 682.87613107 -311.07763672 676.69628906 C-312.86758052 674.47670419 -314.73400802 672.3880331 -316.6875 670.3125 C-364.86734806 616.65111234 -394.19423938 542.27846078 -405.25 471.9375 C-405.47671387 470.4978186 -405.47671387 470.4978186 -405.70800781 469.02905273 C-406.18599221 465.79456575 -406.60423862 462.55813667 -407 459.3125 C-407.08720306 458.60331421 -407.17440613 457.89412842 -407.26425171 457.16345215 C-409.12481357 441.5513472 -409.35964539 426.02147204 -409.3125 410.3125 C-409.31067719 409.05281403 -409.30885437 407.79312805 -409.30697632 406.49526978 C-409.26249409 388.24610993 -408.88556395 370.36346197 -406 352.3125 C-405.82839355 351.18392578 -405.65678711 350.05535156 -405.47998047 348.89257812 C-396.85877563 293.14366105 -377.30865893 238.97868239 -347 191.3125 C-346.58186035 190.65282227 -346.1637207 189.99314453 -345.73291016 189.31347656 C-334.36340003 171.51573234 -321.58572202 154.48193922 -307.3359375 138.89453125 C-306.06349746 137.48803817 -304.7972297 136.07541738 -303.56445312 134.6340332 C-298.70839082 128.96790196 -293.52421792 123.65055471 -288.24951172 118.37670898 C-286.76106763 116.88608385 -285.28082723 115.38762983 -283.80078125 113.88867188 C-278.24680896 108.30298332 -272.56363107 103.13172881 -266.38378906 98.23486328 C-264.16420419 96.44491948 -262.0755331 94.57849198 -260 92.625 C-206.33861234 44.44515194 -131.96596078 15.11826062 -61.625 4.0625 C-60.1853186 3.83578613 -60.1853186 3.83578613 -58.71655273 3.60449219 C-55.48206575 3.12650779 -52.24563667 2.70826138 -49 2.3125 C-48.29081421 2.22529694 -47.58162842 2.13809387 -46.85095215 2.04824829 C-31.2388472 0.18768643 -15.70897204 -0.04714539 0 0 Z " fill="#FBFCFC" transform="translate(409,-0.3125)"/>
<path d="M0 0 C3.74635197 1.90575296 6.32933614 4.52891935 8.19921875 8.29296875 C9.94510183 13.73723137 9.71512339 18.64006572 7.171875 23.7265625 C3.49123041 27.90459149 0.31536364 30.86661916 -5.33984375 31.66015625 C-11.38025256 31.97308167 -14.77097682 30.94936375 -19.546875 27.25 C-21.140625 25.3515625 -21.140625 25.3515625 -23.140625 19.3515625 C-40.300625 19.3515625 -57.460625 19.3515625 -75.140625 19.3515625 C-75.140625 85.0215625 -75.140625 150.6915625 -75.140625 218.3515625 C-85.140625 218.3515625 -85.140625 218.3515625 -87.4453125 216.28125 C-87.96351563 215.27320313 -88.48171875 214.26515625 -89.015625 213.2265625 C-89.3254834 212.65526611 -89.6353418 212.08396973 -89.95458984 211.49536133 C-90.65604539 210.19359898 -91.34005498 208.88233988 -92.00976562 207.56396484 C-93.69390505 204.26913076 -95.48366557 201.03380662 -97.26147461 197.78881836 C-98.28022538 195.92642752 -99.29391484 194.06126068 -100.30297852 192.19360352 C-104.05082528 185.26748981 -107.95753917 178.44983372 -111.953125 171.6640625 C-116.97731183 163.127951 -121.85655755 154.52450205 -126.640625 145.8515625 C-131.3668209 137.28567514 -136.17995709 128.78385787 -141.140625 120.3515625 C-146.80409106 110.72206809 -152.2676929 100.9931418 -157.67138672 91.21582031 C-161.95803661 83.46391453 -166.30827249 75.75258291 -170.71875 68.07055664 C-173.86834679 62.58363307 -176.9949662 57.08475475 -180.08837891 51.56591797 C-181.19930483 49.60247363 -182.32645028 47.64811133 -183.47021484 45.70361328 C-186.06715289 41.26098064 -188.35654231 37.03346184 -190.0234375 32.15625 C-192.64825755 25.15382967 -192.64825755 25.15382967 -198.140625 20.3515625 C-208.91729276 17.98633873 -220.19658755 18.67302846 -231.140625 19.3515625 C-231.17603236 22.43693279 -231.13409306 25.51660306 -231.078125 28.6015625 C-231.08908203 29.47425781 -231.10003906 30.34695313 -231.11132812 31.24609375 C-231.0433039 33.79214322 -230.90745209 35.91983529 -230.140625 38.3515625 C-227.94900137 40.33612005 -225.90105328 41.13037303 -223.140625 42.3515625 C-219.4720662 46.52971512 -218.5354426 50.72809686 -218.82421875 56.21484375 C-219.53287067 61.00043138 -221.60763239 64.0802656 -225.140625 67.2265625 C-228.140625 69.3515625 -228.140625 69.3515625 -231.140625 69.3515625 C-231.140625 133.3715625 -231.140625 197.3915625 -231.140625 263.3515625 C-224.870625 263.3515625 -218.600625 263.3515625 -212.140625 263.3515625 C-212.14661844 259.43185083 -212.19388882 255.52015124 -212.265625 251.6015625 C-212.26304687 250.49039063 -212.26046875 249.37921875 -212.2578125 248.234375 C-212.33186051 245.16138268 -212.46337318 242.35114647 -213.140625 239.3515625 C-215.88761834 236.67288757 -215.88761834 236.67288757 -219.140625 235.3515625 C-223.14557507 230.0477097 -224.89595954 226.04166845 -224.140625 219.3515625 C-222.54837846 215.9852558 -220.76482995 213.00276544 -218.140625 210.3515625 C-215.170625 209.3615625 -215.170625 209.3615625 -212.140625 208.3515625 C-212.140625 156.2115625 -212.140625 104.0715625 -212.140625 50.3515625 C-202.140625 50.3515625 -202.140625 50.3515625 -199.72265625 52.71875 C-198.84673828 54.45511719 -198.84673828 54.45511719 -197.953125 56.2265625 C-197.21365976 57.61403908 -196.47265317 59.0006948 -195.73046875 60.38671875 C-195.32683105 61.17062988 -194.92319336 61.95454102 -194.50732422 62.76220703 C-191.83794792 67.81962129 -188.89468424 72.72411777 -186.015625 77.6640625 C-184.71066602 79.92747891 -183.40730478 82.19181718 -182.10546875 84.45703125 C-173.23649856 99.88028581 -164.3545098 115.29572869 -155.390625 130.6640625 C-154.80595459 131.66646973 -154.22128418 132.66887695 -153.61889648 133.70166016 C-151.38401541 137.52910549 -151.38401541 137.52910549 -149.140625 141.3515625 C-148.63265381 142.26583008 -148.12468262 143.18009766 -147.60131836 144.12207031 C-146.36804874 146.56810822 -146.36804874 146.56810822 -143.94140625 146.84765625 C-143.12027344 146.82832031 -142.29914063 146.80898438 -141.453125 146.7890625 C-135.57273525 147.08995964 -132.27860052 149.2830494 -128.140625 153.3515625 C-125.24264449 156.79291435 -124.62934749 159.72018258 -124.765625 164.234375 C-125.31472034 167.33447575 -126.70620389 169.74432335 -128.36328125 172.39453125 C-129.43511073 175.09295621 -128.89030895 176.5598271 -128.140625 179.3515625 C-126.8950978 181.95790954 -126.8950978 181.95790954 -125.2890625 184.61328125 C-124.69287109 185.63615234 -124.09667969 186.65902344 -123.48242188 187.71289062 C-122.83337891 188.81052734 -122.18433594 189.90816406 -121.515625 191.0390625 C-120.83583582 192.20073172 -120.15681252 193.36284943 -119.47851562 194.52539062 C-118.06904197 196.93973696 -116.65629513 199.35212172 -115.24121094 201.76318359 C-112.01006964 207.27474858 -108.82792317 212.81457223 -105.640625 218.3515625 C-104.40646639 220.49101026 -103.17208997 222.63033238 -101.9375 224.76953125 C-99.63092644 228.76747158 -97.32519374 232.76589446 -95.02050781 236.7649231 C-93.64255562 239.15582847 -92.26428328 241.54654922 -90.88598633 243.93725586 C-89.91521518 245.62140213 -88.94490626 247.30581481 -87.97460938 248.99023438 C-87.38486328 250.01310547 -86.79511719 251.03597656 -86.1875 252.08984375 C-85.41164551 253.43622925 -85.41164551 253.43622925 -84.62011719 254.80981445 C-83.14920827 257.33681655 -81.64496982 259.84432113 -80.140625 262.3515625 C-72.220625 262.6815625 -64.300625 263.0115625 -56.140625 263.3515625 C-56.140625 241.2415625 -56.140625 219.1315625 -56.140625 196.3515625 C-59.110625 195.3615625 -59.110625 195.3615625 -62.140625 194.3515625 C-66.06484152 190.31833997 -67.88545266 186.60558484 -68.515625 181.0390625 C-67.99575573 175.9270147 -66.49430351 171.49509114 -62.609375 167.95703125 C-60.45388207 166.46192218 -58.81293968 165.3515625 -56.140625 165.3515625 C-56.16949295 164.26543167 -56.1983609 163.17930084 -56.22810364 162.06025696 C-56.49268919 151.77836748 -56.68700178 141.49717621 -56.81418324 131.21264362 C-56.8817737 125.92603513 -56.97328932 120.64219364 -57.12133789 115.35717773 C-57.26356188 110.24756813 -57.34051289 105.14060268 -57.37402916 100.02916527 C-57.39788159 98.088517 -57.44446497 96.14799884 -57.51511574 94.20849037 C-58.07716843 78.1257359 -58.07716843 78.1257359 -53.18197632 72.38461304 C-50.92524977 70.06833995 -48.5308452 68.05389517 -46.0007782 66.04606628 C-42.89765812 63.61962695 -42.89765812 63.61962695 -42.40315247 60.20283508 C-42.47567927 57.42317394 -42.47567927 57.42317394 -42.85546875 54.71875 C-43.28998061 51.1117063 -42.23019883 49.25000361 -40.140625 46.3515625 C-36.03608752 42.23732163 -32.91426075 39.62348757 -26.953125 39.0390625 C-21.00261195 39.52680947 -16.81522597 41.59108456 -12.703125 45.9140625 C-9.94650033 50.21439699 -9.50848792 54.35678923 -10.140625 59.3515625 C-11.98724826 65.186892 -14.65636643 68.43440369 -20.140625 71.3515625 C-26.15162374 73.35522875 -31.31303792 72.25444808 -37.140625 70.3515625 C-41.34320249 73.1198254 -45.33028174 76.26091392 -46.65825272 81.32579422 C-47.43560058 87.20271775 -47.17221478 93.13226815 -47.01953125 99.04296875 C-47.00272423 100.95821632 -46.98992295 102.87350285 -46.98094177 104.7888031 C-46.94674129 109.80560014 -46.85848131 114.82001449 -46.75860596 119.83587646 C-46.66618027 124.96382418 -46.62535785 130.09216077 -46.58007812 135.22070312 C-46.48384467 145.2653641 -46.33044424 155.30826441 -46.140625 165.3515625 C-45.03589844 165.94582031 -43.93117188 166.54007813 -42.79296875 167.15234375 C-38.69518646 169.35663504 -36.61660147 171.94099751 -35.140625 176.3515625 C-34.17423479 181.42055264 -34.73531637 185.25478812 -37.328125 189.7265625 C-39.510788 192.83933757 -41.59124082 194.81669366 -45.140625 196.3515625 C-45.800625 196.3515625 -46.460625 196.3515625 -47.140625 196.3515625 C-47.140625 218.1315625 -47.140625 239.9115625 -47.140625 262.3515625 C-35.260625 261.8565625 -35.260625 261.8565625 -23.140625 261.3515625 C-21.820625 259.3715625 -20.500625 257.3915625 -19.140625 255.3515625 C-15.6429297 252.25051306 -12.25620338 250.53085188 -7.640625 249.7890625 C-1.73168027 250.73871433 2.96222862 252.81980284 6.859375 257.4765625 C9.66279616 261.88058561 9.61881166 266.30256055 8.859375 271.3515625 C6.9409988 276.80378958 3.91991586 279.59000896 -1.02734375 282.4375 C-4.6795818 284.0172111 -8.24159713 283.90081686 -12.140625 283.3515625 C-17.1116399 280.81915868 -20.63493067 277.36295116 -23.140625 272.3515625 C-23.89880524 272.39454971 -24.65698547 272.43753693 -25.43814087 272.48182678 C-32.64526354 272.86756039 -39.84185006 273.12842427 -47.05779457 273.25571537 C-50.76774281 273.32540014 -54.46392033 273.44006348 -58.16796875 273.66479492 C-81.96440497 275.06100683 -81.96440497 275.06100683 -88.80166626 268.98794556 C-93.34232918 263.06697253 -96.15138942 256.55879837 -98.7908783 249.62400818 C-101.01153216 244.2400579 -104.0494296 239.37349021 -107.078125 234.4140625 C-108.23901494 232.44076195 -109.39695115 230.46571814 -110.55078125 228.48828125 C-111.13359863 227.4936084 -111.71641602 226.49893555 -112.31689453 225.47412109 C-117.42383938 216.73010174 -122.46561366 207.9481535 -127.51513672 199.17089844 C-128.95841152 196.66760354 -130.40876074 194.16864571 -131.86328125 191.671875 C-132.24693848 191.01010254 -132.6305957 190.34833008 -133.02587891 189.66650391 C-133.98742789 188.00799924 -134.9525151 186.35154721 -135.91796875 184.6953125 C-137.140625 182.3515625 -137.140625 182.3515625 -137.140625 180.3515625 C-138.336875 180.4134375 -139.533125 180.4753125 -140.765625 180.5390625 C-145.77089564 180.50381412 -149.1757861 179.29799541 -152.80859375 175.69921875 C-156.92451339 171.07491949 -158.46094318 167.80779008 -158.44921875 161.40625 C-157.96919009 158.21010978 -155.90890741 156.00398611 -154.140625 153.3515625 C-155.32889242 149.25454291 -157.5765826 145.6659171 -159.6953125 141.984375 C-160.03813263 141.38656219 -160.38095276 140.78874939 -160.73416138 140.17282104 C-161.82493991 138.27230049 -162.92018175 136.37439741 -164.015625 134.4765625 C-164.74379005 133.20980808 -165.47165739 131.94288249 -166.19921875 130.67578125 C-167.54747523 128.32851614 -168.8977755 125.9824745 -170.24951172 123.63720703 C-172.22047651 120.21282746 -174.18033757 116.7820655 -176.140625 113.3515625 C-176.470625 128.2015625 -176.800625 143.0515625 -177.140625 158.3515625 C-175.160625 159.3415625 -175.160625 159.3415625 -173.140625 160.3515625 C-169.34722825 163.58755526 -165.78066776 167.04307551 -162.21264648 170.52441406 C-161.04574351 171.65326761 -159.86735261 172.77037319 -158.67749023 173.875 C-147.52320377 184.237532 -147.52320377 184.237532 -147.18359375 191.984375 C-147.29803833 193.42514404 -147.29803833 193.42514404 -147.41479492 194.89501953 C-147.32431885 195.70567871 -147.23384277 196.51633789 -147.140625 197.3515625 C-144.7901518 199.15641921 -144.7901518 199.15641921 -142.140625 200.3515625 C-138.58267686 203.88255649 -136.26442357 206.91549906 -135.828125 211.9765625 C-135.90652783 216.76784633 -137.33363814 220.48015249 -140.140625 224.3515625 C-144.85764609 228.10592622 -148.85476938 229.79973664 -154.94921875 229.6875 C-159.79671634 228.94438985 -163.62018352 226.39305416 -166.53125 222.484375 C-168.95502637 218.09768115 -169.7951453 214.40071913 -169.140625 209.3515625 C-167.09744661 203.67606697 -163.54315059 200.05282529 -158.140625 197.3515625 C-157.41548361 193.69516174 -157.20200058 191.89892836 -158.140625 188.3515625 C-161.59605566 183.70523825 -165.73769126 179.86315774 -169.953125 175.9140625 C-171.08598271 174.81781652 -172.21686476 173.719525 -173.34570312 172.61914062 C-178.93811007 167.11978792 -178.93811007 167.11978792 -185.140625 162.3515625 C-185.43841553 159.78039551 -185.43841553 159.78039551 -185.33496094 156.47851562 C-185.30633972 155.24121704 -185.27771851 154.00391846 -185.24822998 152.72912598 C-185.2272097 152.06343094 -185.20618942 151.3977359 -185.18453217 150.71186829 C-185.10335214 147.87679909 -185.07814355 145.04208641 -185.04970169 142.20607758 C-184.99666687 136.93602124 -184.92591949 131.668806 -184.74658203 126.40136719 C-184.03918225 104.68457716 -186.83259209 90.34606464 -199.66998291 72.41784668 C-201.140625 70.3515625 -201.140625 70.3515625 -202.140625 68.3515625 C-202.470625 114.5515625 -202.800625 160.7515625 -203.140625 208.3515625 C-200.170625 209.3415625 -200.170625 209.3415625 -197.140625 210.3515625 C-194.890625 212.7265625 -194.890625 212.7265625 -193.140625 215.3515625 C-192.728125 215.9496875 -192.315625 216.5478125 -191.890625 217.1640625 C-189.84591571 223.12779793 -191.02780719 227.99776775 -193.58203125 233.4921875 C-195.140625 235.3515625 -195.140625 235.3515625 -198.68164062 237.00585938 C-200.59061845 238.00544493 -200.59061845 238.00544493 -202.140625 239.3515625 C-203.19332686 242.80375862 -203.19332686 242.80375862 -203.04296875 246.7421875 C-203.06609131 248.03157227 -203.08921387 249.32095703 -203.11303711 250.64941406 C-203.10151611 252.28362305 -203.08999512 253.91783203 -203.078125 255.6015625 C-203.09875 260.7990625 -203.119375 265.9965625 -203.140625 271.3515625 C-215.350625 271.3515625 -227.560625 271.3515625 -240.140625 271.3515625 C-240.140625 204.6915625 -240.140625 138.0315625 -240.140625 69.3515625 C-241.790625 68.6915625 -243.440625 68.0315625 -245.140625 67.3515625 C-248.23236766 64.47842791 -250.95199235 61.24407371 -251.37890625 56.9609375 C-251.53678463 50.87846522 -251.39766112 47.08160263 -247.140625 42.3515625 C-244.0995426 39.50054775 -243.5150138 39.3515625 -239.140625 39.3515625 C-239.140625 30.1115625 -239.140625 20.8715625 -239.140625 11.3515625 C-223.630625 11.3515625 -208.120625 11.3515625 -192.140625 11.3515625 C-190.078125 15.0434375 -188.015625 18.7353125 -185.890625 22.5390625 C-180.86699201 31.52012386 -175.80018145 40.47452573 -170.67822266 49.39990234 C-166.82412802 56.12711856 -163.03992277 62.89182238 -159.265625 69.6640625 C-154.69202505 77.86664632 -150.02816997 86.00732932 -145.265625 94.1015625 C-139.68968861 103.58136188 -134.34855643 113.17327734 -129.06939697 122.8197937 C-122.68105506 134.48352529 -115.99778136 145.95657178 -109.140625 157.3515625 C-105.23896826 130.81102691 -105.23896826 130.81102691 -112.77648926 106.6239624 C-116.19533556 103.00266038 -119.99552964 99.97814882 -123.90869141 96.91552734 C-132.7540978 89.8139336 -132.7540978 89.8139336 -133.66796875 82.87890625 C-133.82269444 77.24403193 -133.19915109 71.87942096 -132.140625 66.3515625 C-135.110625 66.3515625 -138.080625 66.3515625 -141.140625 66.3515625 C-139.46570669 61.47119709 -136.77270539 57.36003302 -134.015625 53.0390625 C-133.54769531 52.29849609 -133.07976562 51.55792969 -132.59765625 50.79492188 C-131.44898304 48.97814282 -130.29530131 47.16453213 -129.140625 45.3515625 C-124.88070565 46.77153562 -123.71613224 49.89754343 -121.578125 53.6015625 C-121.17916016 54.27058594 -120.78019531 54.93960938 -120.36914062 55.62890625 C-118.31628784 59.11772784 -116.51194079 62.52670332 -115.140625 66.3515625 C-118.110625 66.3515625 -121.080625 66.3515625 -124.140625 66.3515625 C-125.37908784 72.91541555 -125.73659679 79.06958136 -123.140625 85.3515625 C-119.98476807 88.76171344 -116.39832891 91.57063817 -112.79703712 94.48661995 C-105.25578988 100.77485851 -98.48477361 107.1675136 -97.28369141 117.29345703 C-96.64344505 125.23881529 -97.18238798 133.24928143 -97.78686523 141.18109131 C-98.2276402 147.10097099 -98.50832618 153.0225512 -98.69168663 158.95553398 C-98.7806503 160.97208203 -98.96308442 162.98386311 -99.15034485 164.9936676 C-99.84816272 180.30795231 -93.80720871 185.01837594 -85.140625 200.3515625 C-84.810625 137.9815625 -84.480625 75.6115625 -84.140625 11.3515625 C-64.010625 11.3515625 -43.880625 11.3515625 -23.140625 11.3515625 C-22.480625 9.3715625 -21.820625 7.3915625 -21.140625 5.3515625 C-15.54838908 -1.04607696 -8.04739912 -2.43771579 0 0 Z " fill="#0A0A0A" transform="translate(672.140625,265.6484375)"/>
<path d="M0 0 C3.25711148 2.28951769 5.38202072 4.58931692 6.8671875 8.3125 C7.74045299 13.62937305 7.55463008 17.85829454 5.2421875 22.75 C2.66464245 25.53103545 0.16524814 27.44837877 -3.1328125 29.3125 C-3.7928125 29.3125 -4.4528125 29.3125 -5.1328125 29.3125 C-4.92906006 30.32795898 -4.72530762 31.34341797 -4.51538086 32.38964844 C-3.72844381 38.14790937 -3.41584749 43.54379676 -6.57550049 48.63891602 C-11.36223261 54.51588321 -17.0636869 59.51605526 -22.6953125 64.5625 C-25.21555119 66.87959057 -27.72290375 69.20863796 -30.21580505 71.55511475 C-31.76246813 73.00478178 -33.32678863 74.43588493 -34.9098053 75.84576416 C-35.61060715 76.49124207 -36.311409 77.13671997 -37.03344727 77.80175781 C-37.65743912 78.36115051 -38.28143097 78.92054321 -38.92433167 79.49688721 C-40.40636027 81.31057036 -40.40636027 81.31057036 -39.89056396 83.89579773 C-39.10771669 86.39253825 -38.14369825 88.4291759 -36.83203125 90.69140625 C-36.35515869 91.52067627 -35.87828613 92.34994629 -35.38696289 93.2043457 C-34.61147095 94.52631958 -34.61147095 94.52631958 -33.8203125 95.875 C-33.28849365 96.7930542 -32.7566748 97.7111084 -32.20874023 98.65698242 C-25.04007284 110.98810135 -17.73103384 123.24084908 -10.1328125 135.3125 C-6.13770047 130.69164753 -3.16471303 125.55209844 -0.0703125 120.3125 C0.45884766 119.42304688 0.98800781 118.53359375 1.53320312 117.6171875 C2.54457672 115.91676013 3.55243118 114.21423295 4.55615234 112.50927734 C5.59563696 110.7675115 6.68240479 109.05397718 7.78515625 107.3515625 C9.18616163 105.28050198 9.18616163 105.28050198 8.1171875 102.6875 C7.4984375 101.511875 7.4984375 101.511875 6.8671875 100.3125 C5.24212557 95.43731422 4.66232391 90.00719492 6.80859375 85.20703125 C9.30652941 81.5345177 11.82665915 79.27471061 15.8671875 77.3125 C18.98046875 77.01953125 18.98046875 77.01953125 22.1796875 77.125 C23.78263672 77.16560547 23.78263672 77.16560547 25.41796875 77.20703125 C26.22621094 77.24183594 27.03445313 77.27664063 27.8671875 77.3125 C28.12588623 76.61318359 28.38458496 75.91386719 28.65112305 75.19335938 C29.98637382 72.03014735 31.58670246 69.18042036 33.32421875 66.21875 C33.66390182 65.63828918 34.0035849 65.05782837 34.3535614 64.45977783 C35.45839811 62.57504625 36.5687014 60.69361231 37.6796875 58.8125 C38.05657715 58.17187622 38.4334668 57.53125244 38.82177734 56.87121582 C58.13410807 24.04557943 58.13410807 24.04557943 60.8671875 21.3125 C64.1671875 21.3125 67.4671875 21.3125 70.8671875 21.3125 C70.8671875 73.4525 70.8671875 125.5925 70.8671875 179.3125 C73.8371875 180.3025 73.8371875 180.3025 76.8671875 181.3125 C80.03128329 184.07826544 82.68197613 187.45431375 83.10546875 191.703125 C83.26355658 197.79366678 83.13209691 201.5865193 78.8671875 206.3125 C74.12494199 210.59208742 70.46780848 211.68761172 64.21484375 211.5859375 C58.77389507 210.95221636 55.77257019 208.4500321 52.4296875 204.25 C50.0657216 199.50160097 50.0949667 194.4762391 50.8671875 189.3125 C53.04571079 184.87476736 55.79754886 182.09698959 59.8671875 179.3125 C60.5271875 179.3125 61.1871875 179.3125 61.8671875 179.3125 C61.5371875 152.2525 61.2071875 125.1925 60.8671875 97.3125 C47.56355895 110.52843937 47.56355895 110.52843937 34.8671875 124.3125 C32.28266169 126.88981654 29.65271066 129.40708065 27.00390625 131.91796875 C24.82915893 134.35511703 23.98283149 136.28620957 22.8671875 139.3125 C25.63392196 142.10825459 28.40626402 144.89838212 31.1796875 147.6875 C31.96537109 148.4815625 32.75105469 149.275625 33.56054688 150.09375 C34.31787109 150.85429687 35.07519531 151.61484375 35.85546875 152.3984375 C36.55196533 153.1001709 37.24846191 153.8019043 37.96606445 154.52490234 C39.94309586 156.48289256 39.94309586 156.48289256 42.8671875 158.3125 C43.15337475 161.15350433 43.24534494 163.77560581 43.20776367 166.61767578 C43.20820175 167.47628204 43.20863983 168.33488831 43.20909119 169.21951294 C43.20699624 172.06584178 43.18363217 174.91158619 43.16015625 177.7578125 C43.1545628 179.72793252 43.15029152 181.6980567 43.14729309 183.66818237 C43.13582455 188.8600003 43.10634012 194.05156746 43.07318115 199.24328613 C43.04252351 204.53845833 43.02879698 209.83367094 43.01367188 215.12890625 C42.98147232 225.52354783 42.93025176 235.91800308 42.8671875 246.3125 C45.8371875 246.3125 48.8071875 246.3125 51.8671875 246.3125 C50.18540101 251.15719177 47.57121497 255.30241895 44.8671875 259.625 C44.41601562 260.36556641 43.96484375 261.10613281 43.5 261.86914062 C43.06429687 262.56845703 42.62859375 263.26777344 42.1796875 263.98828125 C41.78394531 264.62677002 41.38820313 265.26525879 40.98046875 265.9230957 C40.61308594 266.38159912 40.24570312 266.84010254 39.8671875 267.3125 C39.2071875 267.3125 38.5471875 267.3125 37.8671875 267.3125 C36.53857422 265.49243164 36.53857422 265.49243164 35.046875 262.97265625 C34.51191406 262.07482422 33.97695313 261.17699219 33.42578125 260.25195312 C32.87019531 259.30255859 32.31460938 258.35316406 31.7421875 257.375 C31.17886719 256.42947266 30.61554688 255.48394531 30.03515625 254.50976562 C25.8671875 247.47064165 25.8671875 247.47064165 25.8671875 246.3125 C28.8371875 246.3125 31.8071875 246.3125 34.8671875 246.3125 C35.29720916 235.90614579 35.59003356 225.50509165 35.7195282 215.09042358 C35.78377269 210.25046968 35.89083005 205.4202976 36.10498047 200.58447266 C37.74102476 175.27166522 37.74102476 175.27166522 26.78681946 153.49008179 C21.63084043 148.17541093 15.92662971 143.55628969 9.8671875 139.3125 C11.21084199 135.77602562 12.35985088 133.45662034 15.09765625 130.82421875 C15.73638672 130.19966797 16.37511719 129.57511719 17.03320312 128.93164062 C17.70029297 128.29419922 18.36738281 127.65675781 19.0546875 127 C20.36323836 125.73571852 21.66923345 124.46878641 22.97265625 123.19921875 C23.63177002 122.55750732 24.29088379 121.9157959 24.9699707 121.25463867 C26.76232582 119.41984457 28.36493113 117.51818403 29.984375 115.53125 C32.60659077 112.44941323 35.4433218 110.01476892 38.6668396 107.57165527 C54.24238794 95.81348098 54.24238794 95.81348098 62.11523438 78.65234375 C63.53624285 65.59553265 62.37194833 52.31517687 60.8671875 39.3125 C57.13375768 45.30707232 53.41956543 51.31321708 49.71582031 57.32617188 C47.92361808 60.22134062 46.11181429 63.10342311 44.296875 65.984375 C43.1946813 67.76002502 42.09309431 69.53605182 40.9921875 71.3125 C40.19796387 72.55628418 40.19796387 72.55628418 39.38769531 73.82519531 C38.90913086 74.60475586 38.43056641 75.38431641 37.9375 76.1875 C37.51227051 76.86554688 37.08704102 77.54359375 36.64892578 78.2421875 C35.62437394 80.95555403 36.06415625 82.56507905 36.8671875 85.3125 C37.1971875 85.9725 37.5271875 86.6325 37.8671875 87.3125 C38.58629546 94.42105901 38.38111638 99.64115346 33.8671875 105.3125 C29.50408781 108.62845577 27.43578337 109.38014021 22.0546875 109 C19.20984529 109.18908317 17.54554688 109.54649043 15.62011719 111.72070312 C12.76864556 115.88353462 10.51816534 120.38061129 8.20410156 124.85595703 C6.85132149 127.34165336 5.38036804 129.69296751 3.828125 132.05859375 C-3.68268946 143.19366591 -3.68268946 143.19366591 -5.1328125 156.3125 C-4.37484375 156.40660156 -3.616875 156.50070312 -2.8359375 156.59765625 C0.27625328 157.4206778 1.15315408 158.26394717 3.1171875 160.75 C3.61734375 161.36746094 4.1175 161.98492187 4.6328125 162.62109375 C7.56474651 166.6385856 7.40562325 170.48965408 6.8671875 175.3125 C5.50474338 179.99897947 3.58991048 182.72252205 -0.1953125 185.8125 C-4.94870462 188.10724102 -9.99170612 188.07357013 -15.1328125 187.3125 C-19.99760338 185.01278068 -22.86642918 182.193941 -25.1328125 177.3125 C-25.97579611 171.6479653 -26.24904404 166.18002855 -23.0078125 161.25 C-20.50841519 158.31374528 -17.72707406 156.73348713 -14.1328125 155.3125 C-13.64855101 149.03297811 -14.22038946 144.95805618 -17.9453125 139.75 C-18.86963033 138.36533497 -19.78836977 136.97693842 -20.703125 135.5859375 C-21.23583008 134.77995117 -21.76853516 133.97396484 -22.31738281 133.14355469 C-25.71886596 127.8391439 -28.88778885 122.39395001 -32.08734131 116.96618652 C-34.15990493 113.45100535 -36.24048583 109.9405745 -38.3203125 106.4296875 C-38.73086884 105.73621216 -39.14142517 105.04273682 -39.56442261 104.32824707 C-43.29100681 98.03682126 -47.05223867 91.76666564 -50.8203125 85.5 C-58.64022075 72.46681958 -66.3842395 59.38821694 -74.1328125 46.3125 C-74.4628125 110.9925 -74.7928125 175.6725 -75.1328125 242.3125 C-96.9128125 242.3125 -118.6928125 242.3125 -141.1328125 242.3125 C-141.4628125 243.9625 -141.7928125 245.6125 -142.1328125 247.3125 C-143.69140625 249.078125 -143.69140625 249.078125 -145.5703125 250.5625 C-146.18777344 251.06265625 -146.80523437 251.5628125 -147.44140625 252.078125 C-151.44021546 254.99642456 -155.32919687 254.87948414 -160.1328125 254.3125 C-164.97179611 252.58025684 -168.29789275 249.56487963 -171.1328125 245.3125 C-172.97377436 239.78961441 -173.04292706 234.32233631 -170.6328125 229 C-166.36331293 224.41028796 -162.05588672 221.10201587 -155.6328125 220.625 C-150.37117956 220.93450782 -146.70931232 223.58225924 -143.1328125 227.3125 C-142.1428125 228.9625 -141.1528125 230.6125 -140.1328125 232.3125 C-121.6528125 232.6425 -103.1728125 232.9725 -84.1328125 233.3125 C-84.1328125 166.3225 -84.1328125 99.3325 -84.1328125 30.3125 C-73.1328125 30.3125 -73.1328125 30.3125 -70.46630859 32.64477539 C-69.57032959 34.26113892 -69.57032959 34.26113892 -68.65625 35.91015625 C-68.14935387 36.78277351 -68.14935387 36.78277351 -67.63221741 37.67301941 C-66.55097317 39.55415791 -65.53041387 41.46146164 -64.5078125 43.375 C-63.77880378 44.66664405 -63.04579786 45.95604011 -62.30883789 47.24316406 C-60.86893292 49.76934895 -59.45020232 52.3054451 -58.05029297 54.85400391 C-55.66384446 59.15836214 -53.13830598 63.3650446 -50.5703125 67.5625 C-49.88001215 68.71264376 -49.19100267 69.86356435 -48.50390625 71.015625 C-48.05144531 71.77359375 -47.59898437 72.5315625 -47.1328125 73.3125 C-43.49121151 71.77738177 -41.16838035 69.59253346 -38.39453125 66.8046875 C-37.04004883 65.44730469 -37.04004883 65.44730469 -35.65820312 64.0625 C-35.1913208 63.58941406 -34.72443848 63.11632812 -34.2434082 62.62890625 C-32.84047129 61.20791817 -31.42907757 59.79529557 -30.01757812 58.3828125 C-25.30052476 53.63558608 -20.73647245 48.85028268 -16.48364258 43.68017578 C-15.81498169 43.00317627 -15.81498169 43.00317627 -15.1328125 42.3125 C-14.4728125 42.3125 -13.8128125 42.3125 -13.1328125 42.3125 C-13.1328125 38.0225 -13.1328125 33.7325 -13.1328125 29.3125 C-14.7828125 28.9825 -16.4328125 28.6525 -18.1328125 28.3125 C-19.8984375 26.75390625 -19.8984375 26.75390625 -21.3828125 24.875 C-21.88296875 24.25753906 -22.383125 23.64007813 -22.8984375 23.00390625 C-26.30159541 18.34071835 -25.98386156 12.84777845 -25.1328125 7.3125 C-22.7919365 3.09232918 -19.74512975 0.27989035 -15.6328125 -2.1875 C-9.69294166 -3.37547417 -5.25738669 -2.94577309 0 0 Z " fill="#090909" transform="translate(317.1328125,294.6875)"/>
<path d="M0 0 C4.25967609 2.33807264 7.30627689 4.95941534 10 9 C10 10.32 10 11.64 10 13 C10.87093292 12.94670532 11.74186584 12.89341064 12.63919067 12.83850098 C20.90325629 12.35482957 29.16250227 11.9909937 37.43753242 11.75650787 C41.69192788 11.63185151 45.93453265 11.46353142 50.18212891 11.18945312 C77.45956964 9.47561 77.45956964 9.47561 84.83224487 15.19845581 C89.56694262 20.82610231 92.32047407 27.19022062 94.86022949 34.0380249 C96.36430114 37.94672646 98.36362513 41.38601514 100.55078125 44.94140625 C102.13905035 47.73313045 103.72526407 50.52599387 105.30853271 53.32055664 C110.06800703 61.71789537 110.06800703 61.71789537 115.08203125 69.96484375 C115.5205542 70.66472412 115.95907715 71.36460449 116.41088867 72.08569336 C117.52197 73.83755112 118.6544616 75.57578237 119.7890625 77.3125 C121 80 121 80 120.3046875 82.265625 C118.96960447 84.04040603 117.70838035 85.57634971 116 87 C115.34 87 114.68 87 114 87 C112.47590676 84.35823839 110.9518158 81.71647546 109.42773438 79.07470703 C108.08662601 76.75014113 106.74548578 74.42559365 105.40429688 72.10107422 C102.24050871 66.61756461 99.07693453 61.13393256 95.91505432 55.64932251 C94.91750278 53.91899312 93.91981148 52.18874431 92.92211914 50.45849609 C91.67757514 48.30010617 90.43325704 46.14158597 89.18920898 43.98291016 C88.61114502 42.98050293 88.03308105 41.9780957 87.4375 40.9453125 C86.87804687 39.97368164 86.31859375 39.00205078 85.7421875 38.00097656 C84.5088222 35.87646335 83.26274096 33.75930869 82.0078125 31.64746094 C81.04488281 30.02372559 81.04488281 30.02372559 80.0625 28.3671875 C79.47597656 27.3860498 78.88945312 26.40491211 78.28515625 25.39404297 C77 23 77 23 77 21 C67.43 21 57.86 21 48 21 C48 25.516875 48 30.03375 48 34.6875 C47.979375 36.10377686 47.95875 37.52005371 47.9375 38.97924805 C47.81480275 45.47522293 47.81480275 45.47522293 50.77734375 50.91577148 C52.88383718 52.26337627 52.88383718 52.26337627 55.08984375 53.14697266 C57 54 57 54 59 56.6875 C60.78417782 62.59758902 61.10831053 67.78337894 58.3125 73.375 C55.53604336 76.52665348 52.77376371 79.11311814 49 81 C49.01881289 81.59448126 49.03762577 82.18896252 49.05700874 82.80145836 C49.50961604 97.39658923 49.81209838 111.9897991 49.95596504 126.59105492 C50.0290238 133.65398464 50.14998523 140.70961623 50.38867188 147.76904297 C52.12223164 200.36040288 52.12223164 200.36040288 39.28121948 214.50405884 C38.13975611 215.63766702 36.98111237 216.75427919 35.8046875 217.8515625 C35.25073429 218.36949749 34.69678108 218.88743248 34.12604141 219.42106247 C27.91714531 224.91201007 22.02619933 227.71246054 13.63720703 227.57177734 C11.4213041 227.42747281 9.20604872 227.25376892 7 227 C7 229.97 7 232.94 7 236 C2.15530823 234.31821351 -1.98991895 231.70402747 -6.3125 229 C-7.05306641 228.54882812 -7.79363281 228.09765625 -8.55664062 227.6328125 C-9.60561523 226.97925781 -9.60561523 226.97925781 -10.67578125 226.3125 C-11.31427002 225.91675781 -11.95275879 225.52101563 -12.6105957 225.11328125 C-13.06909912 224.74589844 -13.52760254 224.37851562 -14 224 C-14 223.34 -14 222.68 -14 222 C-12.50292969 220.87084961 -12.50292969 220.87084961 -10.421875 219.65234375 C-9.29845703 218.99202148 -9.29845703 218.99202148 -8.15234375 218.31835938 C-6.96318359 217.63483398 -6.96318359 217.63483398 -5.75 216.9375 C-4.97269531 216.47794922 -4.19539063 216.01839844 -3.39453125 215.54492188 C0.0620163 213.53303394 3.05358363 211.8185774 7 211 C7 213.64 7 216.28 7 219 C15.29387404 219.37749404 20.13970969 217.34189776 26.32162952 211.85381603 C36.21063677 202.09365493 41.22356177 194.64961878 41.55782604 180.3738451 C41.53106683 176.69628536 41.40258864 173.03058363 41.26953125 169.35546875 C41.25275582 166.76235699 41.24533268 164.16916967 41.24674988 161.57600403 C41.22792172 155.50634964 41.11668408 149.44521934 40.95778245 143.37783653 C40.78188463 136.45651041 40.72833358 129.53578375 40.68355334 122.61256254 C40.58899454 108.40522766 40.3456701 94.20333962 40 80 C39.22914063 79.86851562 38.45828125 79.73703125 37.6640625 79.6015625 C34.15364455 78.80888748 32.54225423 77.54225423 30 75 C27.07500267 69.7551772 26.34931214 65.85619073 27 60 C29.46450634 55.16577603 32.70552549 52.17417681 37 49 C37.66 49 38.32 49 39 49 C39 39.76 39 30.52 39 21 C29.43 21 19.86 21 10 21 C9.67 22.65 9.34 24.3 9 26 C5.45446844 30.23494048 2.4474407 32.57720067 -3.0703125 33.25390625 C-8.62714373 33.54587535 -12.74479333 32.7040141 -17 29 C-20.96920548 24.01304952 -21.65237307 19.91827233 -21.375 13.58203125 C-20.70408005 8.96246783 -18.7634212 6.49671867 -15.26953125 3.53125 C-10.45073006 0.06863836 -5.8722934 -1.47062652 0 0 Z " fill="#060606" transform="translate(166,264)"/>
<path d="M0 0 C15.51 0 31.02 0 47 0 C47 85.8 47 171.6 47 260 C35.12 260 23.24 260 11 260 C11 257.36 11 254.72 11 252 C19.91 252 28.82 252 38 252 C38 171.48 38 90.96 38 8 C21.665 8.495 21.665 8.495 5 9 C0.1119907 14.13443646 0.1119907 14.13443646 -2.0703125 19.6875 C-4.1381183 26.02123096 -7.69458546 31.3918386 -11.22564697 36.98358154 C-13.13623559 40.02382306 -14.99666176 43.09433953 -16.859375 46.1640625 C-17.22108795 46.75845123 -17.5828009 47.35283997 -17.95547485 47.96524048 C-20.91377212 52.83413825 -23.79153814 57.74518865 -26.625 62.6875 C-35.51509257 78.16699987 -44.65576642 93.5078783 -54.25 108.5625 C-54.7867334 109.419646 -55.3234668 110.27679199 -55.87646484 111.15991211 C-56.3761377 111.93343018 -56.87581055 112.70694824 -57.390625 113.50390625 C-57.82407227 114.18267822 -58.25751953 114.8614502 -58.70410156 115.56079102 C-59.13174805 116.03572998 -59.55939453 116.51066895 -60 117 C-60.99 117 -61.98 117 -63 117 C-65.79369555 113.51494374 -67.95485811 109.57676047 -70.25 105.75 C-71.24386719 104.15478516 -71.24386719 104.15478516 -72.2578125 102.52734375 C-72.87914062 101.50253906 -73.50046875 100.47773438 -74.140625 99.421875 C-74.71329102 98.47924805 -75.28595703 97.53662109 -75.87597656 96.56542969 C-77 94 -77 94 -76.79980469 91.80175781 C-75.67665636 89.27158851 -74.09478901 87.77739674 -72 86 C-71.34 86 -70.68 86 -70 86 C-68.66141476 88.28874173 -67.32898986 90.58069656 -66 92.875 C-65.6184375 93.52597656 -65.236875 94.17695313 -64.84375 94.84765625 C-62 99.7734375 -62 99.7734375 -62 102 C-61.34 102 -60.68 102 -60 102 C-59.73840088 101.29560791 -59.47680176 100.59121582 -59.20727539 99.86547852 C-57.91227592 96.79178613 -56.37278064 94.02834092 -54.68359375 91.15234375 C-54.19156212 90.31226524 -54.19156212 90.31226524 -53.68959045 89.45521545 C-52.6092897 87.61375607 -51.52360457 85.77554134 -50.4375 83.9375 C-49.67180276 82.63611021 -48.90617899 81.33467719 -48.140625 80.03320312 C-42.65981747 70.7330473 -37.07852905 61.49604011 -31.45169067 52.28369141 C-25.10061962 41.88328471 -18.91061278 31.39394313 -12.79492188 20.85351562 C-12.13814453 19.72494141 -11.48136719 18.59636719 -10.8046875 17.43359375 C-10.23733887 16.45447021 -9.66999023 15.47534668 -9.08544922 14.46655273 C-6.15004215 9.58715155 -3.05713568 4.80407036 0 0 Z " fill="#0B0B0B" transform="translate(369,277)"/>
<path d="M0 0 C7.70227047 6.16181637 7.70227047 6.16181637 8.36076355 10.22735596 C8.35410172 11.03565857 8.34743988 11.84396118 8.34057617 12.67675781 C8.34034958 13.59741028 8.34012299 14.51806274 8.33988953 15.46661377 C8.32440567 16.45216248 8.30892181 17.43771118 8.29296875 18.453125 C8.28872391 19.46848328 8.28447906 20.48384155 8.28010559 21.52996826 C8.26332424 24.77024954 8.22567241 28.00990697 8.1875 31.25 C8.17245249 33.44790768 8.1587642 35.64582512 8.14648438 37.84375 C8.11342238 43.22940673 8.06164319 48.61459762 8 54 C10.97 54 13.94 54 17 54 C15.37085735 58.74016082 12.81251676 62.66564933 10.0625 66.8125 C9.61970703 67.50537109 9.17691406 68.19824219 8.72070312 68.91210938 C7.56202511 70.66480413 6.28819385 72.34017162 5 74 C4.01 74 3.02 74 2 74 C0.32631288 71.6281974 -1.13032853 69.32405681 -2.5625 66.8125 C-2.96146484 66.13896484 -3.36042969 65.46542969 -3.77148438 64.77148438 C-5.81926428 61.26735348 -7.62308911 57.8330222 -9 54 C-6.03 54 -3.06 54 0 54 C0 36.18 0 18.36 0 0 Z " fill="#050505" transform="translate(265,398)"/>
<path d="M0 0 C3 2.0625 3 2.0625 5 5 C5.1526226 9.3497442 4.71471806 11.2257221 1.75 14.4375 C-1.31174854 16.17712985 -2.56624271 16.77259539 -6 16 C-9.62336332 13.3428669 -10.85568506 11.91399461 -11.5625 7.4375 C-11 4 -11 4 -9.4375 1.5625 C-6.01685857 -0.63021887 -3.99048721 -0.63007693 0 0 Z " fill="#F1F2F3" transform="translate(668,273)"/>
<path d="M0 0 C4.0743356 0.84881992 5.54405875 2.30225596 8 5.625 C8.625 8.625 8.625 8.625 8 11.625 C5.54853142 14.94169279 4.04375441 16.38580628 0 17.3125 C-4.32475043 16.32141136 -5.64743715 14.29223032 -8 10.625 C-8.625 8.0625 -8.625 8.0625 -8 5.625 C-5.53235541 2.35899981 -4.04381805 0.84246209 0 0 Z " fill="#F0EFF0" transform="translate(339,379.375)"/>
<path d="M0 0 C1.91015625 0.4453125 1.91015625 0.4453125 4.47265625 2.5078125 C6.35626596 6.35692799 6.11780025 8.36951401 4.91015625 12.4453125 C2.55658412 15.25149465 1.05588005 15.42449481 -2.58984375 15.9453125 C-6.08984375 15.4453125 -6.08984375 15.4453125 -8.52734375 13.3203125 C-10.35821234 9.95151429 -10.73235097 8.22004244 -10.08984375 4.4453125 C-7.4838503 0.31915621 -4.62422787 -0.2593025 0 0 Z " fill="#F2F3F2" transform="translate(310.08984375,458.5546875)"/>
<path d="M0 0 C2.4375 1.5625 2.4375 1.5625 4 4 C4.55802097 7.90614682 4.58392818 10.05111671 2.5 13.4375 C-0.53037069 15.33148168 -2.55830934 15.64334247 -6.08984375 15.4453125 C-8 15 -8 15 -10.5625 12.9375 C-12.44610971 9.08838451 -12.207644 7.07579849 -11 3 C-7.92160879 -0.67038952 -4.56677188 -0.57084649 0 0 Z " fill="#F3F4F4" transform="translate(165,525)"/>
<path d="M0 0 C4.11289267 0.85685264 5.59686932 2.20235933 8 5.625 C8 9.14455419 7.63108355 11.47420059 5.9375 14.5625 C2.73774742 16.31720303 -0.4994894 16.251852 -4 15.625 C-6.5 14 -6.5 14 -8 11.625 C-8.5625 8.6875 -8.5625 8.6875 -8 5.625 C-5.54405875 2.30225596 -4.0743356 0.84881992 0 0 Z " fill="#F3F4F5" transform="translate(210,320.375)"/>
<path d="M0 0 C2.4375 1.625 2.4375 1.625 4 4 C4.63656938 7.73984509 4.25584708 9.50962644 2.5 12.875 C-0.52710708 15.44804102 -2.20460187 15.74916772 -6.08984375 15.48046875 C-8 15 -8 15 -10.5625 12.9375 C-12.44610971 9.08838451 -12.207644 7.07579849 -11 3 C-7.92160879 -0.67038952 -4.56677188 -0.57084649 0 0 Z " fill="#F5F6F6" transform="translate(165,273)"/>
<path d="M0 0 C3 2.0625 3 2.0625 5 5 C5.06584389 8.81894541 4.85572029 10.97971812 2.375 13.9375 C-1.01168643 15.45259656 -3.33417263 15.52368962 -7 15 C-9.96135546 12.41830549 -10.86756104 10.81118865 -11.5 6.9375 C-11 4 -11 4 -9.4375 1.625 C-6.02544071 -0.64970619 -4.02388226 -0.63534983 0 0 Z " fill="#F3F3F1" transform="translate(649,314)"/>
<path d="M0 0 C3 2.0625 3 2.0625 5 5 C5.06584389 8.81894541 4.85572029 10.97971812 2.375 13.9375 C-1.01168643 15.45259656 -3.33417263 15.52368962 -7 15 C-9.96135546 12.41830549 -10.86756104 10.81118865 -11.5 6.9375 C-11 4 -11 4 -9.4375 1.625 C-6.02544071 -0.64970619 -4.02388226 -0.63534983 0 0 Z " fill="#F3F5F5" transform="translate(311,301)"/>
<path d="M0 0 C2.9375 2.0625 2.9375 2.0625 5 5 C5 8.51955419 4.63108355 10.84920059 2.9375 13.9375 C-0.27905997 15.70141999 -3.49385409 15.73924763 -7 15 C-9.5625 12.9375 -9.5625 12.9375 -11 10 C-11 6.1862249 -10.84985071 3.97575452 -8.3125 1.0625 C-5.2135552 -0.3613395 -3.37817188 -0.55153827 0 0 Z " fill="#F6F6F6" transform="translate(387,482)"/>
<path d="M0 0 C2.9375 2.0625 2.9375 2.0625 5 5 C5.06584389 8.81894541 4.85572029 10.97971812 2.375 13.9375 C-1.01168643 15.45259656 -3.33417263 15.52368962 -7 15 C-9.5 12.9375 -9.5 12.9375 -11 10 C-11 6.1862249 -10.84985071 3.97575452 -8.3125 1.0625 C-5.2135552 -0.3613395 -3.37817188 -0.55153827 0 0 Z " fill="#F5F5F5" transform="translate(668,525)"/>
<path d="M0 0 C2.9375 2.0625 2.9375 2.0625 5 5 C5 8.51955419 4.63108355 10.84920059 2.9375 13.9375 C-0.27905997 15.70141999 -3.49385409 15.73924763 -7 15 C-9.5625 12.9375 -9.5625 12.9375 -11 10 C-11 6.1862249 -10.84985071 3.97575452 -8.3125 1.0625 C-5.2135552 -0.3613395 -3.37817188 -0.55153827 0 0 Z " fill="#F2F4F4" transform="translate(440,312)"/>
<path d="M0 0 C2.4375 1.5625 2.4375 1.5625 4 4 C4.56288002 7.94016013 4.60396028 10.05782196 2.4375 13.4375 C-0.94217804 15.60396028 -3.05983987 15.56288002 -7 15 C-9.4375 13.4375 -9.4375 13.4375 -11 11 C-11.56288002 7.05983987 -11.60396028 4.94217804 -9.4375 1.5625 C-6.05782196 -0.60396028 -3.94016013 -0.56288002 0 0 Z " fill="#F6F7F7" transform="translate(523,471)"/>
<path d="M0 0 C2.4375 1.5625 2.4375 1.5625 4 4 C4.56288002 7.94016013 4.60396028 10.05782196 2.4375 13.4375 C-0.94217804 15.60396028 -3.05983987 15.56288002 -7 15 C-9.4375 13.4375 -9.4375 13.4375 -11 11 C-11.56288002 7.05983987 -11.60396028 4.94217804 -9.4375 1.5625 C-6.05782196 -0.60396028 -3.94016013 -0.56288002 0 0 Z " fill="#F6F7F6" transform="translate(624,439)"/>
<path d="M0 0 C2.4375 1.5625 2.4375 1.5625 4 4 C4.56288002 7.94016013 4.60396028 10.05782196 2.4375 13.4375 C-0.94217804 15.60396028 -3.05983987 15.56288002 -7 15 C-9.4375 13.4375 -9.4375 13.4375 -11 11 C-11.56288002 7.05983987 -11.60396028 4.94217804 -9.4375 1.5625 C-6.05782196 -0.60396028 -3.94016013 -0.56288002 0 0 Z " fill="#F7F7F6" transform="translate(534,422)"/>
<path d="M0 0 C2 1 2 1 3 3 C3.39309578 6.09562931 3.62338668 8.04336605 3 11 C0.9375 13.5625 0.9375 13.5625 -2 15 C-5.8137751 15 -8.02424548 14.84985071 -10.9375 12.3125 C-12.33817538 9.26397123 -12.4842732 7.32073048 -12 4 C-8.87063045 -0.95483512 -5.3663324 -0.59625916 0 0 Z " fill="#F5F6F6" transform="translate(469,482)"/>
</svg>
